<svg width="28" height="32" viewBox="0 0 28 32" fill="none" xmlns="http://www.w3.org/2000/svg">
<path d="M22.9829 30.7161C21.2409 32.4048 19.3389 32.1382 17.5081 31.3383C15.5705 30.5206 13.793 30.485 11.7488 31.3383C9.1891 32.4403 7.83816 32.1204 6.30947 30.7161C-2.36499 21.775 -1.08516 8.15897 8.76249 7.66126C11.1622 7.78568 12.8331 8.97664 14.2374 9.0833C16.3349 8.65668 18.3435 7.43017 20.5832 7.59015C23.2673 7.80346 25.2937 8.86999 26.6269 10.7897C21.0809 14.1138 22.3963 21.4195 27.4801 23.4637C26.4669 26.13 25.1515 28.7786 22.9651 30.7339L22.9829 30.7161ZM14.0596 7.5546C13.793 3.59066 17.0103 0.31996 20.7077 0C21.2231 4.58609 16.5482 7.99899 14.0596 7.5546Z" fill="#F4F4F5"/>
</svg>
